<svg width="477.867" height="477.867" xmlns="http://www.w3.org/2000/svg" xml:space="preserve" version="1.1">

 <g>
  <title>Layer 1</title>
  <g fill="white" id="svg_1">
   <g id="svg_2">
    <path id="svg_3" d="m472.184,4.347c-3.631,-3.209 -8.441,-4.75 -13.261,-4.25l-307.2,34.133c-8.647,0.957 -15.19,8.265 -15.189,16.964l0,304.146c-15.468,-9.256 -33.174,-14.102 -51.2,-14.012c-47.053,0.001 -85.334,30.618 -85.334,68.267s38.281,68.267 85.333,68.267s85.333,-30.601 85.333,-68.267l0,-257.706l273.067,-30.413l0,199.68c-15.473,-9.238 -33.179,-14.066 -51.2,-13.961c-47.053,0 -85.333,30.618 -85.333,68.267c0,37.649 38.281,68.267 85.333,68.267s85.333,-30.601 85.333,-68.267l0,-358.4c0,-4.854 -2.066,-9.478 -5.682,-12.715z"/>
   </g>
  </g>
  <g id="svg_4"/>
  <g id="svg_5"/>
  <g id="svg_6"/>
  <g id="svg_7"/>
  <g id="svg_8"/>
  <g id="svg_9"/>
  <g id="svg_10"/>
  <g id="svg_11"/>
  <g id="svg_12"/>
  <g id="svg_13"/>
  <g id="svg_14"/>
  <g id="svg_15"/>
  <g id="svg_16"/>
  <g id="svg_17"/>
  <g id="svg_18"/>
 </g>
</svg>